<?xml version="1.0" encoding="UTF-8"?><svg id="Calque_2" xmlns="http://www.w3.org/2000/svg" viewBox="0 0 331.04 428.23"><defs><style>.cls-1,.cls-2,.cls-3,.cls-4,.cls-5,.cls-6,.cls-7,.cls-8{stroke:#000;}.cls-1,.cls-2,.cls-3,.cls-7{stroke-miterlimit:10;}.cls-1,.cls-4,.cls-9,.cls-5,.cls-6,.cls-8{fill:none;}.cls-2{fill:#2c2b2b;}.cls-10,.cls-11,.cls-3{fill:#fff;}.cls-12{fill:#d5952c;}.cls-13{opacity:.25;}.cls-11{opacity:.5;}.cls-14{fill:#ecd89c;}.cls-4,.cls-9,.cls-5,.cls-6,.cls-8{stroke-linejoin:round;}.cls-4,.cls-5,.cls-6{stroke-linecap:round;}.cls-4,.cls-8{stroke-width:2px;}.cls-9{stroke:#fff;stroke-width:15px;}.cls-15{fill:#e6d470;}.cls-5{stroke-width:.5px;}.cls-6,.cls-7{stroke-width:1.5px;}.cls-7{fill:#d0cdc6;}.cls-16{fill:#c3742f;}.cls-17{fill:#668689;}</style></defs><g id="Illustration"><g id="Calque_4"><path class="cls-9" d="M272.46,280.02c-1.42-7.42-3.9-16.32-8.1-21.75-.02-.02-.03-.04-.05-.06-.91-1.46-1.89-2.86-2.97-4.18l-.04-.05-.06-.06c-1.28-1.56-2.68-3-4.23-4.29-.71-.59-1.4-1.15-2.08-1.69l-.02-.02-.08-.06c-.4-.32-.79-.63-1.17-.93-1.99-1.67-3.39-2.61-3.95-2.95-.27-.19-.53-.38-.8-.56l-.08-.06-1.3-.92c-1.01-4.46-2.39-7.13-2.39-7.13l3.69-.05s-7.7-9.97-12.19-12.85c-4.49-2.88-10.96-5.24-13.28-5.72-.58-.12-1.02-.22-1.37-.32.33-2.65.59-4.74.76-6.18,2.02-.71,3.76-1.61,5.03-2.71,4.87-4.2,3.78-13.98,3.78-13.98l2.27,2.55s-.43-9.87-2.69-15.35c-2.27-5.48-10.96-17.57-10.96-17.57l-1.75-2.14,1.04-.97.32-.62c.77-.84,1.15-1.46,1.05-2.05l.03-.05-.05-.04c-.02-.06-.02-.12-.04-.18-.17-.39-.57-.6-1.12-.66l-.04-.03h-.06c-1-.06-2.46.32-4,.99h-.02s2.76-2.5,2.76-2.5l.05-.57c.09-.24.11-.47.06-.71l.04-.53-.41-.06c-.49-.38-1.39-.47-2.51-.34h-.02s-.03,0-.03,0c-1.64.2-3.72.86-5.66,1.8h-.03s1.66-1.79,1.66-1.79c1.46-1.19,2.34-1.99,2.54-2.75l.41-.44-.43-.33c-.14-.39-.5-.64-1-.77l-.16-.12-.2.04c-1.2-.16-3.02.18-4.93.86l-.89-5.62c1.92-1.36,3.68-2.7,4.78-3.63,2.2-1.84,9.8-8.43,11.61-12.14,1.81-3.7,2-6.04,2-6.04l3.95,1.59-.32-10.18,3.99,1.28-11.09-17.61s-.38-1.31-1.07-3.12h0s0-.02,0-.02c-.69-1.8-1.69-4.1-2.95-6.13,1.05-2.1,2.92-6.46,2.38-10.09-.74-4.96-2.98-9.78-8.86-9.96-4.68-.14-7.78,2.27-8.85,3.26-2.29-1.61-5.01-3.24-6.87-3.85-2.93-.97-8.01-2.5-11.39-3.76-3.38-1.25-3-.8-4.94-2.13-1.94-1.32-3.17-2.36-5.17-3.71s-7.39-2.57-7.39-2.57l.87,4.23s-9.48-3.14-13.27-3.19c-3.79-.05-4.85.17-4.85.17l2.81,4.02s-5.29-.19-8.01.24c-2.72.43-4.77,1.63-4.77,1.63l3.31,2.57s-8.98,2.03-13.09,3.71c-4.11,1.68-10.8,7.35-10.8,7.35,0,0-3.02-1.42-7.32-1.04-4.3.38-10.85,2.53-11.28,12.2-.33,7.45,3.56,9.89,5.37,10.62-6.14,1.18-8.05,1.06-8.05,1.06,0,0-3.47-8.59-13.39-9.43s-17.93,3.41-17.93,3.41c0,0,5.03,6.66,8.86,9.21,3.83,2.55,8.86,4.39,8.86,4.39,0,0-4.75,3.05-8.43,7.3-3.69,4.25-5.24,9.5-5.24,9.5,0,0,8.93,2.91,18.57-.85,9.64-3.76,11.05-10.42,11.05-10.42,0,0,1.38-.24,3.75-.48l-4.25,18.32,4.77-3.12s-1.32,2.08-1.84,5.76c-.52,3.69-.28,7.32-.28,7.32l4.11-4.68s.14,11.62-.24,14.31c-.38,2.69-3.31,10.39-5.57,13.94-2.27,3.54-4.44,8.22-4.44,8.22l3.87-1.61s-3.12,7.04-4.72,13.04c-1.61,6-1.89,14.74-1.89,14.74l3.31-3.69s-1.84,8.36-1.61,18.57c.11,4.65.49,9.87,1.48,15.15-1.6-1.04-5.56-3.87-9.93-8.89-5.67-6.52-5.2-15.83-6.14-25.51-.79-8.13-3.45-13.84-3.45-13.84l-1.96,5.46s-2.06-10.03-5.07-15.24c-3.01-5.21-9.78-10.84-9.78-10.84l1.74,6.09s-6.48-7.94-13.75-11.37c-7.26-3.44-13.93-1.49-13.93-1.49,0,0,2.87,6.24,4.36,10.13,1.49,3.9-.92,14.28-1.38,19.42-.46,5.14-.12,11.87-.12,11.87,0,0-1.16-.94-1.63-2.43-.47-1.49-.47-3.21-.47-3.21,0,0-2.83,6.05-1.98,16.35.85,10.3,12.19,20.98,12.19,20.98l-4.54-.94s7.18,10.11,15.59,16.25c8.41,6.14,19.65,8.79,19.65,8.79l-5.48.76s8.31,2.93,18.14,3.4c7.91.38,15.56-1.5,18.25-2.25.48.65.94,1.27,1.41,1.86l-26.81,3.76s-2.27.36-5.52,1.41c-.12.04-.23.07-.35.11-.46.15-.96.32-1.47.51h0s0,0,0,0c-.52.19-1.07.41-1.63.65-5,2.07-10.97,5.58-14.78,11.33,0,0,0,0,0,.01-1.25,1.39-2.25,2.65-2.97,3.59h0s0,0,0,0c-.86,1.14-1.32,1.84-1.32,1.84,0,0,.37-.45,1.01-1.18l-.45.98-1.12,1.45-4.32,10.7-.57,3.19c-.28,1.11-.52,2.19-.73,3.23l-.75,2.61-.26,3.89-.17.95v1.44s-.35,5.27-.35,5.27l.35,11.41.12,4.04c.12,7.15.32,12.83.32,12.83l.5,20.41.38,19.77.39,11.28h0s72.95,32.7,72.95,32.7l135.6-34.93,16.81-4.33,1.65-67.06v-15.24h0s0-3.7-.59-9.14c-.31-3.11-.79-6.64-1.5-10.01Z"/><path class="cls-9" d="M24.11,66.43l-6.85-12.3,18.28,8.32c.44.18.87.23,1.3.15.43-.08.96-.31,1.62-.67.86-.48,1.41-.95,1.64-1.42.23-.46.28-.93.14-1.39-.13-.46-.32-.91-.57-1.35l-10.62-19.08c-.25-.44-.52-.84-.83-1.21-.31-.36-.71-.57-1.22-.63-.5-.05-1.19.16-2.05.64-.84.47-1.38.93-1.61,1.38s-.3.89-.2,1.32c.1.43.28.87.52,1.31l7.03,12.62-18.01-8.33c-.45-.21-.89-.32-1.33-.33-.44-.02-1.07.21-1.91.68-.86.48-1.42.95-1.67,1.41s-.32.9-.2,1.33c.11.42.29.86.54,1.3l10.68,19.19c.26.47.55.88.87,1.23.32.36.74.56,1.25.61.52.05,1.18-.15,2-.61.86-.48,1.41-.95,1.64-1.42.23-.46.28-.93.14-1.39-.13-.46-.32-.91-.57-1.35Z"/><path class="cls-9" d="M41.5,54.14c1.01.96,2.16,1.67,3.44,2.14,1.28.47,2.58.7,3.92.7,1.33,0,2.58-.23,3.75-.7,1.14-.45,2.19-1.12,3.14-2.01.95-.88,1.73-1.93,2.32-3.14.59-1.21.93-2.52,1.02-3.92.09-1.4-.17-2.85-.77-4.36-.71-1.78-1.79-3.23-3.24-4.35-1.45-1.12-3.07-1.81-4.86-2.09-1.79-.28-3.58-.06-5.36.65-1.31.52-2.44,1.27-3.39,2.24-.95.97-1.69,2.07-2.23,3.32-.54,1.25-.82,2.55-.86,3.9-.04,1.35.21,2.69.75,4.03.57,1.44,1.37,2.63,2.38,3.59ZM44.44,45.99c.12-.75.4-1.41.84-1.99.44-.58,1.04-1.02,1.78-1.31.79-.32,1.56-.43,2.3-.34.74.09,1.4.37,1.99.82.58.46,1.03,1.08,1.35,1.87.37.92.46,1.76.27,2.52-.18.76-.53,1.42-1.03,1.96-.5.54-1.05.94-1.64,1.17-.59.24-1.26.34-1.99.3-.73-.04-1.42-.28-2.08-.72-.65-.44-1.15-1.11-1.51-2-.31-.77-.4-1.53-.28-2.28Z"/><path class="cls-9" d="M59.06,37.89c.42.33,1.01.39,1.75.19l1.34-.41,1.89,6.11c.39,1.25.87,2.28,1.44,3.09.57.81,1.25,1.42,2.05,1.82.79.4,1.7.59,2.71.58,1.02,0,2.17-.21,3.47-.61.48-.15.94-.33,1.36-.55.42-.21.71-.57.86-1.06.15-.49.09-1.2-.19-2.12-.26-.84-.57-1.4-.92-1.68-.35-.28-.76-.41-1.23-.37-.46.03-.98.13-1.54.31-.33.1-.62.16-.86.18-.25.02-.45-.01-.62-.1-.17-.09-.32-.26-.47-.5-.15-.25-.28-.58-.41-.98l-1.8-5.83,2.58-.73c.51-.16.96-.36,1.36-.61.4-.25.67-.62.81-1.11s.08-1.17-.19-2.03c-.29-.94-.64-1.57-1.05-1.9-.41-.32-.84-.46-1.3-.41-.46.05-.93.14-1.42.29l-2.54.87-1.15-3.7c-.16-.51-.35-.97-.57-1.37-.22-.41-.58-.69-1.08-.84-.49-.15-1.2-.09-2.12.19s-1.54.62-1.86,1.02c-.32.39-.47.81-.43,1.24.04.44.13.91.29,1.42l1.21,3.9-1.18.37c-.71.22-1.18.61-1.4,1.17-.22.56-.19,1.29.1,2.21.31.99.67,1.66,1.1,1.99Z"/><path class="cls-9" d="M83.37,21.56c.3.31.66.47,1.07.48.41.02.82-.02,1.24-.1l6.4-1.24,3.77,19.4c.1.5.23.97.4,1.41.17.44.49.76.96.95.47.19,1.18.2,2.12.02.97-.19,1.63-.46,1.98-.81.35-.35.53-.76.54-1.23,0-.46-.04-.94-.14-1.44l-3.78-19.44,6.32-1.23c.45-.09.86-.21,1.23-.36.38-.15.65-.44.83-.85.18-.41.19-1.03.03-1.84-.17-.86-.41-1.45-.73-1.75s-.67-.46-1.05-.47c-.38,0-.8.03-1.24.12l-18.65,3.63c-.42.08-.82.2-1.19.35-.38.15-.65.43-.82.83-.17.4-.17,1.02,0,1.85.16.84.4,1.41.7,1.72Z"/><path class="cls-9" d="M112.57,34.22c.73,1.19,1.65,2.17,2.77,2.95,1.11.78,2.31,1.34,3.6,1.69,1.29.34,2.56.44,3.8.29,1.22-.15,2.4-.52,3.55-1.13s2.17-1.42,3.05-2.44,1.55-2.19,2-3.52c.45-1.33.57-2.8.38-4.42-.23-1.91-.9-3.58-2.01-5.04-1.11-1.45-2.5-2.54-4.16-3.27s-3.44-.98-5.35-.75c-1.4.17-2.69.6-3.85,1.29-1.17.69-2.17,1.57-3.01,2.63s-1.45,2.25-1.83,3.54c-.38,1.29-.49,2.66-.32,4.09.18,1.54.64,2.9,1.37,4.09ZM117.5,27.11c.31-.69.75-1.26,1.33-1.71.58-.44,1.26-.71,2.06-.81.85-.1,1.62-.01,2.31.27.69.28,1.26.72,1.71,1.31s.72,1.31.82,2.16c.12.98-.01,1.81-.39,2.5-.38.69-.87,1.23-1.5,1.63s-1.25.63-1.89.71c-.63.08-1.3,0-2-.23-.7-.23-1.3-.64-1.82-1.23-.51-.6-.83-1.37-.94-2.32-.1-.82,0-1.58.31-2.27Z"/><path class="cls-9" d="M134.73,31.26c.56,1.18,1.29,2.22,2.2,3.1.9.88,1.92,1.55,3.06,2.01,1.13.46,2.3.65,3.5.58,1.33-.08,2.47-.41,3.41-1.02.5-.32.95-.7,1.36-1.12v.1c.17.6.49,1.04.96,1.31.47.27,1.16.38,2.06.32.96-.05,1.64-.24,2.03-.56.4-.32.63-.71.69-1.18.07-.47.08-.96.06-1.47l-1.31-23c-.03-.53-.1-1.02-.22-1.47-.12-.45-.39-.8-.82-1.06-.43-.26-1.14-.36-2.12-.3-.99.06-1.67.24-2.05.56-.38.32-.59.71-.63,1.18-.04.47-.04.96-.02,1.46l.45,7.92c-.48-.39-.99-.73-1.56-.99-1-.46-2.14-.66-3.42-.59-1.2.07-2.33.4-3.39.99-1.06.6-2,1.38-2.81,2.34-.81.97-1.43,2.06-1.86,3.27-.43,1.21-.6,2.47-.53,3.78.08,1.36.4,2.63.96,3.81ZM140.19,25.1c.3-.62.74-1.12,1.32-1.5.58-.38,1.23-.59,1.95-.63.75-.04,1.42.09,2.03.41.6.31,1.1.76,1.48,1.34.38.58.59,1.26.64,2.03.04.75-.1,1.43-.42,2.07-.33.63-.76,1.15-1.32,1.54s-1.19.61-1.91.65c-.69.04-1.35-.1-1.99-.43-.63-.32-1.14-.78-1.52-1.38-.38-.59-.59-1.26-.63-2.01-.04-.77.08-1.47.38-2.08Z"/><path class="cls-9" d="M159.14,33.3c.86.94,1.85,1.67,2.96,2.2s2.28.78,3.51.77c1.07,0,1.96-.17,2.68-.48s1.3-.66,1.75-1.05c.45-.39.75-.72.91-.99l-.39.68c0,.51.24.93.71,1.27.47.34,1.2.51,2.18.5s1.69-.15,2.1-.44.66-.67.75-1.15c.09-.48.13-.97.13-1.48l-.1-13.8c0-.53-.05-1.04-.15-1.52-.1-.48-.35-.86-.77-1.15-.42-.29-1.1-.43-2.06-.42-1.01,0-1.75.18-2.22.52-.46.34-.68.83-.65,1.46l.32.56c-.24-.34-.6-.7-1.07-1.07-.47-.37-1.05-.69-1.75-.97-.7-.27-1.54-.41-2.52-.4-1.23,0-2.38.28-3.47.83-1.09.54-2.06,1.28-2.92,2.2-.86.93-1.53,1.99-2.02,3.18-.49,1.19-.72,2.44-.71,3.75,0,1.33.26,2.6.77,3.79.5,1.2,1.18,2.27,2.04,3.21ZM162.81,24.29c.36-.62.83-1.11,1.43-1.49.6-.38,1.28-.57,2.06-.58.69,0,1.33.17,1.92.53.59.36,1.06.83,1.41,1.43.35.6.53,1.28.54,2.06,0,.75-.16,1.43-.49,2.04-.33.62-.78,1.11-1.35,1.47-.57.36-1.2.55-1.9.55-.77,0-1.47-.17-2.1-.52-.63-.36-1.13-.83-1.49-1.43-.36-.6-.55-1.26-.55-1.98,0-.77.17-1.47.53-2.08Z"/><path class="cls-9" d="M187.07,33.24l-3.86,7.48c-.51.96-.69,1.74-.55,2.33.14.6.74,1.16,1.81,1.7,1.06.54,1.87.72,2.41.54.54-.18,1.07-.78,1.58-1.79l11.32-22c.48-.91.65-1.65.5-2.22-.14-.57-.73-1.14-1.77-1.7-1.07-.49-1.88-.65-2.44-.48s-1.09.76-1.6,1.77l-4.19,8.12-5.21-9.05c-.54-.94-1.09-1.5-1.65-1.67-.56-.18-1.38.02-2.46.6-.97.56-1.53,1.13-1.68,1.71-.15.58.04,1.32.58,2.24l7.2,12.42Z"/><path class="cls-9" d="M213.59,39.04c.97.15,1.7.11,2.16-.11.46-.23.78-.56.94-1.01.16-.45.28-.92.36-1.42l1.27-8.3,10.76,1.64-1.26,8.26c-.08.5-.1,1-.07,1.49.03.49.23.91.6,1.26.36.35,1.03.6,2.01.75s1.7.11,2.16-.11c.47-.23.78-.56.94-1.01.16-.45.28-.92.36-1.42l3.3-21.59c.08-.55.12-1.06.09-1.52-.02-.46-.22-.87-.58-1.22s-1.03-.6-2.01-.75c-.98-.15-1.7-.11-2.16.11-.47.23-.79.55-.96.99-.17.43-.3.91-.38,1.44l-1.24,8.11-10.76-1.64,1.23-8.07c.08-.55.12-1.06.09-1.52-.02-.46-.22-.87-.58-1.22-.37-.35-1.04-.6-2.01-.75-1-.15-1.73-.12-2.18.11-.45.23-.77.56-.94.99-.17.43-.3.91-.38,1.44l-3.3,21.59c-.08.5-.11,1-.08,1.48.02.49.22.91.6,1.26.38.35,1.05.61,2.03.75Z"/><path class="cls-9" d="M239.09,40.76c.78,1.11,1.72,2.05,2.81,2.82,1.09.76,2.25,1.29,3.47,1.57,1.19.28,2.43.33,3.72.15s2.52-.59,3.7-1.25c1.18-.65,2.21-1.53,3.08-2.63.87-1.1,1.49-2.44,1.87-4.02.44-1.87.38-3.68-.17-5.42-.55-1.74-1.48-3.24-2.79-4.49-1.31-1.25-2.9-2.1-4.77-2.53-1.38-.32-2.73-.36-4.06-.11-1.33.25-2.57.73-3.73,1.45-1.15.72-2.13,1.62-2.93,2.7-.8,1.09-1.37,2.33-1.7,3.73-.35,1.51-.39,2.94-.11,4.31.28,1.37.81,2.61,1.59,3.72ZM243.49,34.07c.19-.8.55-1.48,1.07-2.03.53-.55,1.14-.93,1.83-1.15s1.43-.24,2.21-.06c.83.19,1.52.54,2.08,1.04.55.5.94,1.1,1.16,1.81.22.71.23,1.48.03,2.31-.23.96-.63,1.7-1.22,2.22-.59.52-1.24.86-1.96,1.02-.72.16-1.39.17-2.02.02-.62-.15-1.22-.44-1.8-.9-.58-.45-1.01-1.04-1.29-1.78-.28-.74-.31-1.57-.09-2.51Z"/><path class="cls-9" d="M277.23,33.85c-.81-.75-1.82-1.32-3.04-1.72-.58-.19-1.2-.29-1.86-.3-.65-.01-1.29.05-1.92.2-.62.15-1.17.37-1.64.65-.47.28-.79.61-.96.97l.46-.65c-.02-.12.02-.31.1-.58s.12-.57.11-.91c-.02-.34-.18-.68-.49-1.02-.31-.34-.87-.64-1.68-.9-.94-.3-1.65-.39-2.12-.26-.48.13-.83.38-1.07.77s-.43.82-.59,1.3l-4.32,13.4c-.16.48-.26.96-.31,1.43-.05.47.07.91.38,1.3.31.39.93.74,1.87,1.04.94.3,1.65.39,2.12.26.47-.13.83-.4,1.06-.81s.43-.86.58-1.35l2.23-6.93c.24-.74.59-1.32,1.05-1.76.46-.44,1.01-.72,1.64-.86.63-.13,1.31-.08,2.05.16s1.31.58,1.72,1.04c.41.46.66.99.74,1.61s0,1.3-.24,2.06l-2.22,6.89c-.16.48-.25.96-.29,1.44-.04.48.09.91.4,1.31.31.39.94.75,1.91,1.06.94.3,1.65.39,2.12.26.47-.13.83-.4,1.06-.81.23-.42.43-.86.58-1.35l2.23-6.93c.43-1.34.66-2.64.68-3.88.02-1.24-.16-2.39-.55-3.44-.39-1.05-.99-1.95-1.8-2.7Z"/><path class="cls-9" d="M295.21,52.95c1,.43,1.97.46,2.9.09.93-.37,1.68-1.23,2.26-2.58.33-.76.5-1.63.53-2.6s-.14-1.97-.51-2.98c-.36-1.01-.97-1.97-1.82-2.87-.85-.9-1.98-1.66-3.4-2.27-1.91-.82-3.78-1.13-5.6-.94-1.82.19-3.46.82-4.9,1.88-1.44,1.06-2.56,2.51-3.35,4.35-.48,1.13-.78,2.34-.88,3.63-.1,1.29.04,2.56.43,3.82.39,1.26,1.08,2.43,2.08,3.52,1,1.09,2.35,2.01,4.07,2.75,1.54.66,2.92,1.09,4.12,1.29,1.21.2,2.21.19,3.01-.01.8-.21,1.33-.61,1.58-1.19.11-.24.18-.5.22-.77.04-.27.04-.58-.02-.92-.05-.57-.17-1.04-.38-1.4-.21-.36-.5-.61-.88-.75-.21-.06-.43-.1-.67-.11-.24-.02-.52-.03-.84-.03-.32,0-.66-.02-1.02-.05-.37-.03-.78-.1-1.25-.23-.47-.13-1-.32-1.58-.57-.69-.29-1.28-.7-1.79-1.2-.51-.51-.87-1.07-1.08-1.68-.21-.61-.21-1.25.01-1.91l8.75,3.75ZM288.92,44.82c.54-.35,1.17-.54,1.88-.58.71-.04,1.45.1,2.21.43.59.25,1.07.57,1.44.95.38.38.63.79.75,1.24.13.45.1.89-.09,1.33-.17.39-.37.62-.62.67-.24.06-.56,0-.95-.17l-5.81-2.49c.24-.56.63-1.02,1.17-1.37Z"/><path class="cls-9" d="M322.7,54.68c-.73-.92-1.38-1.43-1.96-1.53-.57-.1-1.32.18-2.23.85l-7.42,5.34-.54-10.43c-.05-1.08-.29-1.83-.71-2.24-.42-.41-1.24-.61-2.46-.58-1.12.06-1.87.32-2.27.76-.4.45-.57,1.2-.5,2.25l.78,14.33-6.83,4.91c-.89.62-1.4,1.23-1.55,1.83-.15.59.13,1.37.84,2.34.7.96,1.34,1.49,1.91,1.57.57.08,1.31-.21,2.22-.88l20.07-14.48c.84-.59,1.32-1.17,1.45-1.75.13-.57-.14-1.34-.8-2.32Z"/><path class="cls-16" d="M47.54,388.04l72.94,32.69,152.41-39.26,1.65-82.3-.33-6.26s-1.62-24-9.86-34.64-14.92-14.46-14.92-14.46l-7.63-3.83-126.64,11.55-33.92,4.76s-16.17,2.54-23.76,14.02-9.71,18.49-10.99,27.14-.23,39.12-.23,39.12l1.27,51.47Z"/><path class="cls-17" d="M271.72,276.94c-2.6-9.54-5.6-15.55-5.6-15.55l-4.82-7.41-6.39-6.06-6.08-4.56-6.03-4.3-.64,13.75,3.52,4.61,4.71,5.74,3.08,5.71,2.45,6.9,1.56,7.25.8,6.04-5.34,1.03-8.23,1.68-80.53,16.48-31.94,6.54-.7-1.16-2.37-16.96-4.45-12.89s-6.74-16.16-16.42-21.17c-9.68-5.01-11.22-7.63-27.52-5.96-2.4.25-4.68.84-6.84,1.66h-.02s-.03.02-.03.02c-4.08,1.56-7.7,3.96-10.73,6.48l-.94.57-1.15,1.27c-3,2.8-5.24,5.53-6.55,7.26h0s0,0,0,0c-.86,1.14-1.32,1.84-1.32,1.84,0,0,.37-.45,1.01-1.18l-4.24,9.28-3.69,12.88-.78,11.55.35,11.41.64,22.04.67,35.01.39,11.29,72.94,32.69,152.41-39.26,1.65-67.06v-15.24s-.23-12.69-2.83-22.23ZM60.11,291.11l2.34-6.98,3.05-6.02,2.83-3.83,4.32-4.26,6.66-.71,4.68.92s10.87,4.51,16.1,15.08c5.23,10.57,7.46,29.03,7.46,29.03l-49-14.56,1.56-8.68ZM110.05,400.92l-50.61-22.87-.31-53.99,47.29,17.18,1.93,3.16,2.95,3.04.26,52.1-1.51,1.4ZM260.62,318.4l-.62,43.75-.33,8.79-14.32,3.68-112.16,28.46-.14-39.42-.13-17.06,2.78-4.25,50.79-11.67,47.76-10.93,26.47-6.12-.11,4.77Z"/><path class="cls-13" d="M47.54,388.04l-1.63-74.81-.07-11.64,2.48-13.87,4.32-10.7,6.63-8.61,8.92-6.11s11.2-4.77,24.09,1.13c12.9,5.91,21.02,26.83,21.02,26.83l3.87,13.13,1.13,6.28,2.18,23.5v29.15l-.05,39.57.05,18.82-72.94-32.69Z"/></g><g id="Calque_3"><polygon class="cls-6" points="47.54 388.04 120.49 420.73 120.49 333.23 120.49 333.23 45.84 308.3 47.54 388.04"/><path class="cls-6" d="M120.49,420.73l152.41-39.26,1.65-82.3-154.06,34.06s-.61-7.88-1.89-21.34-8.7-34.39-19.56-43.89c-10.03-8.78-25.8-10.02-34.39-3.59-5.78,4.32-8.81,8.17-8.81,8.17"/><path class="cls-6" d="M137.55,329.46s1.11,9.61-3.57,15.53c-5.34,6.76-13.49,8.18-13.49,8.18,0,0-7.91-3.19-11.88-8.72-3.97-5.53-3.25-16.05-3.25-16.05,0,0-.81-7.72,4-13.25,4.82-5.53,8.93-6.02,8.93-6.02,0,0,10.16,1.2,14.83,6.73,4.68,5.53,4.42,13.6,4.42,13.6Z"/><path class="cls-6" d="M104.17,413.41s.28-7.54,5.1-11.65c4.82-4.11,11.22-4.3,11.22-4.3,0,0,8.25.5,13.76,6.71,5.28,5.95,5.78,11.53,5.78,11.53"/><path class="cls-6" d="M256.09,385.8s-.41-9.43,4.48-16.02c4.89-6.59,12.76-9.43,12.76-9.43"/><path class="cls-6" d="M274.55,299.17s.05-34.94-17.53-49.54c-17.57-14.6-24.24-13.61-24.24-13.61l-152.83,20.74s-18.71,1.69-28.63,23.81c-6.53,14.56-5.48,27.72-5.48,27.72"/><path class="cls-6" d="M46.28,328.61s13.79-2.28,13.84-15.55-7.61-20.07-9.03-21.3c-1.42-1.23-2.99-2.16-2.99-2.16"/><path class="cls-6" d="M271.9,277.71s-15.28,6.89-14.21,25.19c1.08,18.3,16.39,19.15,16.39,19.15"/><path class="cls-6" d="M62.35,394.67s.45-10.26-4.37-16.64c-4.82-6.38-10.83-8.07-10.83-8.07"/><line class="cls-6" x1="60.33" y1="382.32" x2="107.84" y2="403.23"/><line class="cls-6" x1="56.43" y1="323.07" x2="107.04" y2="341.46"/><line class="cls-6" x1="111.05" y1="347.19" x2="111.56" y2="400.15"/><line class="cls-6" x1="59.44" y1="378.18" x2="58.83" y2="323.95"/><line class="cls-6" x1="55.83" y1="375.55" x2="55.54" y2="324.39"/><line class="cls-6" x1="59.44" y1="378.18" x2="110.35" y2="400.92"/><line class="cls-6" x1="58.38" y1="302.66" x2="107.56" y2="317.75"/><path class="cls-6" d="M107.56,314.35l-49.17-14.74s1.22-9.14,4.44-16.63c3.21-7.46,10.08-12.95,10.08-12.95"/><path class="cls-6" d="M55.34,296.63s2.97-13.6,8.78-20.83c5.81-7.23,15.59-7.72,21.4-4.82s13.96,9.35,17.5,21.61c3.54,12.26,4.97,24.39,4.97,24.39"/><path class="cls-6" d="M131.6,314.35s-2.11-26.6-12.08-40.25c-9.75-13.35-20.2-17.16-26.6-17.62s-11.67.12-11.67.12"/><line class="cls-6" x1="262.34" y1="367.66" x2="263.59" y2="317.22"/><line class="cls-6" x1="258.24" y1="373.94" x2="135.49" y2="405.68"/><polyline class="cls-6" points="135.49 342.58 260.73 313.63 259.8 370.9 133.35 403.23 132.93 346.22"/><polyline class="cls-6" points="134.15 317.22 259.5 291.16 260 289.99 257.98 289.06 132.23 314.79"/><path class="cls-6" d="M257.98,289.06s-1.02-16.08-7.04-24.91c-6.02-8.82-10.66-11.66-10.66-11.66l.6-3.83s8.98,6.67,13.6,15.49c5.52,10.52,6.57,23.81,6.57,23.81"/><polygon class="cls-17" points="188.81 308.74 188.88 329.19 190.08 332.32 194.83 335.02 199.92 335.96 207.38 334.54 213.48 330.91 216.22 325.66 216.25 315.17 216.07 304.92 211.01 303.99 188.81 308.74"/><polygon class="cls-6" points="188.81 308.62 211.3 303.99 216.22 304.98 192.88 309.85 188.81 308.62"/><path class="cls-6" d="M192.88,309.85v19.37s-.43,9.54,13.09,5.76c11.39-3.19,10.25-11.06,10.25-11.06v-18.94"/><path class="cls-6" d="M188.81,308.62v19.71s-.03,2.88,1.53,3.85c2.01,1.25,4.86,4.36,10.49,3.69"/><path d="M205.44,319.83c1.36-.9,2.32-2.49,2.32-4.13,0-2.24-1.76-3.71-3.92-3.29s-3.92,2.57-3.92,4.8c0,1.64.95,2.87,2.32,3.24v8.74l1.88-.36,1.33-.26,1.88-.36v-2.28l-1.88.36v-1.36l1.88-.36v-1.43l-1.88.36v-3.68Z"/><path d="M39.66,57.77l-10.62-19.08c-.25-.44-.52-.84-.83-1.21-.31-.36-.71-.57-1.22-.63-.5-.05-1.19.16-2.05.64-.84.47-1.38.93-1.61,1.38s-.3.89-.2,1.32c.1.43.28.87.52,1.31l7.03,12.62-18.01-8.33c-.45-.21-.89-.32-1.33-.33-.44-.02-1.07.21-1.91.68-.86.48-1.42.95-1.67,1.41s-.32.9-.2,1.33c.11.42.29.86.54,1.3l10.68,19.19c.26.47.55.88.87,1.23.32.36.74.56,1.25.61.52.05,1.18-.15,2-.61.86-.48,1.41-.95,1.64-1.42.23-.46.28-.93.14-1.39-.13-.46-.32-.91-.57-1.35l-6.85-12.3,18.28,8.32c.44.18.87.23,1.3.15.43-.08.96-.31,1.62-.67.86-.48,1.41-.95,1.64-1.42.23-.46.28-.93.14-1.39-.13-.46-.32-.91-.57-1.35Z"/><path d="M55.08,38.5c-1.45-1.12-3.07-1.81-4.86-2.09-1.79-.28-3.58-.06-5.36.65-1.31.52-2.44,1.27-3.39,2.24-.95.97-1.69,2.07-2.23,3.32-.54,1.25-.82,2.55-.86,3.9-.04,1.35.21,2.69.75,4.03.57,1.44,1.37,2.63,2.38,3.59,1.01.96,2.16,1.67,3.44,2.14,1.28.47,2.58.7,3.92.7,1.33,0,2.58-.23,3.75-.7,1.14-.45,2.19-1.12,3.14-2.01.95-.88,1.73-1.93,2.32-3.14.59-1.21.93-2.52,1.02-3.92.09-1.4-.17-2.85-.77-4.36-.71-1.78-1.79-3.23-3.24-4.35ZM52.97,47.56c-.18.76-.53,1.42-1.03,1.96-.5.54-1.05.94-1.64,1.17-.59.24-1.26.34-1.99.3-.73-.04-1.42-.28-2.08-.72-.65-.44-1.15-1.11-1.51-2-.31-.77-.4-1.53-.28-2.28.12-.75.4-1.41.84-1.99.44-.58,1.04-1.02,1.78-1.31.79-.32,1.56-.43,2.3-.34.74.09,1.4.37,1.99.82.58.46,1.03,1.08,1.35,1.87.37.92.46,1.76.27,2.52Z"/><path d="M74.83,43.25c-.35-.28-.76-.41-1.23-.37-.46.03-.98.13-1.54.31-.33.1-.62.16-.86.18-.25.02-.45-.01-.62-.1-.17-.09-.32-.26-.47-.5-.15-.25-.28-.58-.41-.98l-1.8-5.83,2.58-.73c.51-.16.96-.36,1.36-.61.4-.25.67-.62.81-1.11s.08-1.17-.19-2.03c-.29-.94-.64-1.57-1.05-1.9-.41-.32-.84-.46-1.3-.41-.46.05-.93.14-1.42.29l-2.54.87-1.15-3.7c-.16-.51-.35-.97-.57-1.37-.22-.41-.58-.69-1.08-.84-.49-.15-1.2-.09-2.12.19s-1.54.62-1.86,1.02c-.32.39-.47.81-.43,1.24.04.44.13.91.29,1.42l1.21,3.9-1.18.37c-.71.22-1.18.61-1.4,1.17-.22.56-.19,1.29.1,2.21.31.99.67,1.66,1.1,1.99.42.33,1.01.39,1.75.19l1.34-.41,1.89,6.11c.39,1.25.87,2.28,1.44,3.09.57.81,1.25,1.42,2.05,1.82.79.4,1.7.59,2.71.58,1.02,0,2.17-.21,3.47-.61.48-.15.94-.33,1.36-.55.42-.21.71-.57.86-1.06.15-.49.09-1.2-.19-2.12-.26-.84-.57-1.4-.92-1.68Z"/><path d="M105.63,13.53c-.32-.31-.67-.46-1.05-.47-.38,0-.8.03-1.24.12l-18.65,3.63c-.42.08-.82.2-1.19.35-.38.15-.65.43-.82.83-.17.4-.17,1.02,0,1.85.16.84.4,1.41.7,1.72.3.31.66.47,1.07.48.41.02.82-.02,1.24-.1l6.4-1.24,3.77,19.4c.1.5.23.97.4,1.41.17.44.49.76.96.95.47.19,1.18.2,2.12.02.97-.19,1.63-.46,1.98-.81.35-.35.53-.76.54-1.23,0-.46-.04-.94-.14-1.44l-3.78-19.44,6.32-1.23c.45-.09.86-.21,1.23-.36.38-.15.65-.44.83-.85.18-.41.19-1.03.03-1.84-.17-.86-.41-1.45-.73-1.75Z"/><path d="M129.72,22.61c-1.11-1.45-2.5-2.54-4.16-3.27s-3.44-.98-5.35-.75c-1.4.17-2.69.6-3.85,1.29-1.17.69-2.17,1.57-3.01,2.63s-1.45,2.25-1.83,3.54c-.38,1.29-.49,2.66-.32,4.09.18,1.54.64,2.9,1.37,4.09.73,1.19,1.65,2.17,2.77,2.95,1.11.78,2.31,1.34,3.6,1.69,1.29.34,2.56.44,3.8.29,1.22-.15,2.4-.52,3.55-1.13s2.17-1.42,3.05-2.44,1.55-2.19,2-3.52c.45-1.33.57-2.8.38-4.42-.23-1.91-.9-3.58-2.01-5.04ZM125.34,30.83c-.38.69-.87,1.23-1.5,1.63s-1.25.63-1.89.71c-.63.08-1.3,0-2-.23-.7-.23-1.3-.64-1.82-1.23-.51-.6-.83-1.37-.94-2.32-.1-.82,0-1.58.31-2.27.31-.69.75-1.26,1.33-1.71.58-.44,1.26-.71,2.06-.81.85-.1,1.62-.01,2.31.27.69.28,1.26.72,1.71,1.31s.72,1.31.82,2.16c.12.98-.01,1.81-.39,2.5Z"/><path d="M152.75,10.34c-.03-.53-.1-1.02-.22-1.47-.12-.45-.39-.8-.82-1.06-.43-.26-1.14-.36-2.12-.3-.99.06-1.67.24-2.05.56-.38.32-.59.71-.63,1.18-.04.47-.04.96-.02,1.46l.45,7.92c-.48-.39-.99-.73-1.56-.99-1-.46-2.14-.66-3.42-.59-1.2.07-2.33.4-3.39.99-1.06.6-2,1.38-2.81,2.34-.81.97-1.43,2.06-1.86,3.27-.43,1.21-.6,2.47-.53,3.78.08,1.36.4,2.63.96,3.81.56,1.18,1.29,2.22,2.2,3.1.9.88,1.92,1.55,3.06,2.01,1.13.46,2.3.65,3.5.58,1.33-.08,2.47-.41,3.41-1.02.5-.32.95-.7,1.36-1.12v.1c.17.6.49,1.04.96,1.31.47.27,1.16.38,2.06.32.96-.05,1.64-.24,2.03-.56.4-.32.63-.71.69-1.18.07-.47.08-.96.06-1.47l-1.31-23ZM147.17,28.81c-.33.63-.76,1.15-1.32,1.54s-1.19.61-1.91.65c-.69.04-1.35-.1-1.99-.43-.63-.32-1.14-.78-1.52-1.38-.38-.59-.59-1.26-.63-2.01-.04-.77.08-1.47.38-2.08.3-.62.74-1.12,1.32-1.5.58-.38,1.23-.59,1.95-.63.75-.04,1.42.09,2.03.41.6.31,1.1.76,1.48,1.34.38.58.59,1.26.64,2.03.04.75-.1,1.43-.42,2.07Z"/><path d="M176.16,17.83c-.1-.48-.35-.86-.77-1.15-.42-.29-1.1-.43-2.06-.42-1.01,0-1.75.18-2.22.52-.46.34-.68.83-.65,1.46l.32.56c-.24-.34-.6-.7-1.07-1.07-.47-.37-1.05-.69-1.75-.97-.7-.27-1.54-.41-2.52-.4-1.23,0-2.38.28-3.47.83-1.09.54-2.06,1.28-2.92,2.2-.86.93-1.53,1.99-2.02,3.18-.49,1.19-.72,2.44-.71,3.75,0,1.33.26,2.6.77,3.79.5,1.2,1.18,2.27,2.04,3.21.86.94,1.85,1.67,2.96,2.2s2.28.78,3.51.77c1.07,0,1.96-.17,2.68-.48s1.3-.66,1.75-1.05c.45-.39.75-.72.91-.99l-.39.68c0,.51.24.93.71,1.27.47.34,1.2.51,2.18.5s1.69-.15,2.1-.44.66-.67.75-1.15c.09-.48.13-.97.13-1.48l-.1-13.8c0-.53-.05-1.04-.15-1.52ZM169.68,28.28c-.33.62-.78,1.11-1.35,1.47-.57.36-1.2.55-1.9.55-.77,0-1.47-.17-2.1-.52-.63-.36-1.13-.83-1.49-1.43-.36-.6-.55-1.26-.55-1.98,0-.77.17-1.47.53-2.08.36-.62.83-1.11,1.43-1.49.6-.38,1.28-.57,2.06-.58.69,0,1.33.17,1.92.53.59.36,1.06.83,1.41,1.43.35.6.53,1.28.54,2.06,0,.75-.16,1.43-.49,2.04Z"/><path d="M198.52,17.58c-1.07-.49-1.88-.65-2.44-.48s-1.09.76-1.6,1.77l-4.19,8.12-5.21-9.05c-.54-.94-1.09-1.5-1.65-1.67-.56-.18-1.38.02-2.46.6-.97.56-1.53,1.13-1.68,1.71-.15.58.04,1.32.58,2.24l7.2,12.42-3.86,7.48c-.51.96-.69,1.74-.55,2.33.14.6.74,1.16,1.81,1.7,1.06.54,1.87.72,2.41.54.54-.18,1.07-.78,1.58-1.79l11.32-22c.48-.91.65-1.65.5-2.22-.14-.57-.73-1.14-1.77-1.7Z"/><path d="M234.62,13.97c-.98-.15-1.7-.11-2.16.11-.47.23-.79.55-.96.99-.17.43-.3.91-.38,1.44l-1.24,8.11-10.76-1.64,1.23-8.07c.08-.55.12-1.06.09-1.52-.02-.46-.22-.87-.58-1.22-.37-.35-1.04-.6-2.01-.75-1-.15-1.73-.12-2.18.11-.45.23-.77.56-.94.99-.17.43-.3.91-.38,1.44l-3.3,21.59c-.08.5-.11,1-.08,1.48.02.49.22.91.6,1.26.38.35,1.05.61,2.03.75.97.15,1.7.11,2.16-.11.46-.23.78-.56.94-1.01.16-.45.28-.92.36-1.42l1.27-8.3,10.76,1.64-1.26,8.26c-.08.5-.1,1-.07,1.49.03.49.23.91.6,1.26.36.35,1.03.6,2.01.75s1.7.11,2.16-.11c.47-.23.78-.56.94-1.01.16-.45.28-.92.36-1.42l3.3-21.59c.08-.55.12-1.06.09-1.52-.02-.46-.22-.87-.58-1.22s-1.03-.6-2.01-.75Z"/><path d="M257.58,31.98c-.55-1.74-1.48-3.24-2.79-4.49-1.31-1.25-2.9-2.1-4.77-2.53-1.38-.32-2.73-.36-4.06-.11-1.33.25-2.57.73-3.73,1.45-1.15.72-2.13,1.62-2.93,2.7-.8,1.09-1.37,2.33-1.7,3.73-.35,1.51-.39,2.94-.11,4.31.28,1.37.81,2.61,1.59,3.72.78,1.11,1.72,2.05,2.81,2.82,1.09.76,2.25,1.29,3.47,1.57,1.19.28,2.43.33,3.72.15s2.52-.59,3.7-1.25c1.18-.65,2.21-1.53,3.08-2.63.87-1.1,1.49-2.44,1.87-4.02.44-1.87.38-3.68-.17-5.42ZM251.87,35.99c-.23.96-.63,1.7-1.22,2.22-.59.52-1.24.86-1.96,1.02-.72.16-1.39.17-2.02.02-.62-.15-1.22-.44-1.8-.9-.58-.45-1.01-1.04-1.29-1.78-.28-.74-.31-1.57-.09-2.51.19-.8.55-1.48,1.07-2.03.53-.55,1.14-.93,1.83-1.15s1.43-.24,2.21-.06c.83.19,1.52.54,2.08,1.04.55.5.94,1.1,1.16,1.81.22.71.23,1.48.03,2.31Z"/><path d="M277.23,33.85c-.81-.75-1.82-1.32-3.04-1.72-.58-.19-1.2-.29-1.86-.3-.65-.01-1.29.05-1.92.2-.62.15-1.17.37-1.64.65-.47.28-.79.61-.96.97l.46-.65c-.02-.12.02-.31.1-.58s.12-.57.11-.91c-.02-.34-.18-.68-.49-1.02-.31-.34-.87-.64-1.68-.9-.94-.3-1.65-.39-2.12-.26-.48.13-.83.38-1.07.77s-.43.82-.59,1.3l-4.32,13.4c-.16.48-.26.96-.31,1.43-.05.47.07.91.38,1.3.31.39.93.74,1.87,1.04.94.3,1.65.39,2.12.26.47-.13.83-.4,1.06-.81s.43-.86.58-1.35l2.23-6.93c.24-.74.59-1.32,1.05-1.76.46-.44,1.01-.72,1.64-.86.63-.13,1.31-.08,2.05.16s1.31.58,1.72,1.04c.41.46.66.99.74,1.61s0,1.3-.24,2.06l-2.22,6.89c-.16.48-.25.96-.29,1.44-.04.48.09.91.4,1.31.31.39.94.75,1.91,1.06.94.3,1.65.39,2.12.26.47-.13.83-.4,1.06-.81.23-.42.43-.86.58-1.35l2.23-6.93c.43-1.34.66-2.64.68-3.88.02-1.24-.16-2.39-.55-3.44-.39-1.05-.99-1.95-1.8-2.7Z"/><path d="M295.21,52.95c1,.43,1.97.46,2.9.09.93-.37,1.68-1.23,2.26-2.58.33-.76.5-1.63.53-2.6s-.14-1.97-.51-2.98c-.36-1.01-.97-1.97-1.82-2.87-.85-.9-1.98-1.66-3.4-2.27-1.91-.82-3.78-1.13-5.6-.94-1.82.19-3.46.82-4.9,1.88-1.44,1.06-2.56,2.51-3.35,4.35-.48,1.13-.78,2.34-.88,3.63-.1,1.29.04,2.56.43,3.82.39,1.26,1.08,2.43,2.08,3.52,1,1.09,2.35,2.01,4.07,2.75,1.54.66,2.92,1.09,4.12,1.29,1.21.2,2.21.19,3.01-.01.8-.21,1.33-.61,1.58-1.19.11-.24.18-.5.22-.77.04-.27.04-.58-.02-.92-.05-.57-.17-1.04-.38-1.4-.21-.36-.5-.61-.88-.75-.21-.06-.43-.1-.67-.11-.24-.02-.52-.03-.84-.03-.32,0-.66-.02-1.02-.05-.37-.03-.78-.1-1.25-.23-.47-.13-1-.32-1.58-.57-.69-.29-1.28-.7-1.79-1.2-.51-.51-.87-1.07-1.08-1.68-.21-.61-.21-1.25.01-1.91l8.75,3.75ZM288.92,44.82c.54-.35,1.17-.54,1.88-.58.71-.04,1.45.1,2.21.43.59.25,1.07.57,1.44.95.38.38.63.79.75,1.24.13.45.1.89-.09,1.33-.17.39-.37.62-.62.67-.24.06-.56,0-.95-.17l-5.81-2.49c.24-.56.63-1.02,1.17-1.37Z"/><path d="M322.7,54.68c-.73-.92-1.38-1.43-1.96-1.53-.57-.1-1.32.18-2.23.85l-7.42,5.34-.54-10.43c-.05-1.08-.29-1.83-.71-2.24-.42-.41-1.24-.61-2.46-.58-1.12.06-1.87.32-2.27.76-.4.45-.57,1.2-.5,2.25l.78,14.33-6.83,4.91c-.89.62-1.4,1.23-1.55,1.83-.15.59.13,1.37.84,2.34.7.96,1.34,1.49,1.91,1.57.57.08,1.31-.21,2.22-.88l20.07-14.48c.84-.59,1.32-1.17,1.45-1.75.13-.57-.14-1.34-.8-2.32Z"/><line class="cls-5" x1="133.2" y1="383.31" x2="260" y2="352.96"/><line class="cls-5" x1="133.2" y1="361.5" x2="260" y2="331.15"/><line class="cls-5" x1="111.05" y1="382.81" x2="59.26" y2="362.34"/><line class="cls-5" x1="111.05" y1="361.93" x2="59.26" y2="341.46"/><line class="cls-5" x1="60.68" y1="289.06" x2="105.31" y2="301.59"/><line class="cls-5" x1="66.45" y1="277.64" x2="100.1" y2="286.12"/><line class="cls-5" x1="129.95" y1="302.66" x2="256.25" y2="277.71"/><line class="cls-5" x1="124.27" y1="282.72" x2="248.33" y2="260.57"/><line class="cls-5" x1="111.71" y1="265.39" x2="226.28" y2="245.55"/><line class="cls-5" x1="96.22" y1="256.97" x2="233.85" y2="238.51"/><polygon class="cls-15" points="144.07 362.63 153.72 374.04 144.07 390.12 170.96 383.62 172.44 381.97 172.91 376.55 226.46 363.6 227.74 369.92 255.11 363.67 245.05 351.98 254.47 335.8 238.24 339.39 238.54 333.19 160.66 352.02 160.13 358.21 144.07 362.63"/><polygon class="cls-8" points="160.66 352.02 160.66 379.51 238.54 360.68 238.54 333.19 160.66 352.02"/><polyline class="cls-8" points="172.27 376.71 172.27 383.31 144.07 390.12 153.72 374.04 144.07 362.63 160.66 358.62"/><path d="M168.62,372.28c-.5.12-.85.12-1.07.02-.21-.11-.34-.29-.39-.54-.05-.25-.07-.52-.07-.8v-12.01c0-.29.03-.57.08-.83.05-.26.18-.5.39-.71.21-.21.57-.38,1.08-.5.5-.12.85-.12,1.06-.01.21.11.33.29.38.52.05.24.07.51.07.82v12.01c0,.28-.02.55-.07.82s-.18.51-.39.72-.57.38-1.07.5ZM169.67,365.74v-2.9l6.28-1.52v2.9l-6.28,1.52ZM177.15,370.22c-.5.12-.85.12-1.06.01-.21-.11-.34-.29-.39-.54s-.08-.52-.08-.79v-12.01c0-.29.03-.57.08-.83.05-.26.19-.5.4-.71.21-.21.57-.38,1.07-.5.5-.12.85-.12,1.06-.01.21.11.33.29.38.52.05.24.07.51.07.82v12.01c0,.28-.02.55-.07.82-.05.27-.18.51-.39.72-.21.21-.57.38-1.07.5Z"/><path d="M186.93,368.08c-.96.23-1.87.25-2.72.05-.85-.2-1.6-.58-2.23-1.13-.64-.56-1.14-1.26-1.51-2.11-.37-.85-.55-1.82-.55-2.9s.18-2.17.53-3.22c.35-1.05.84-2.01,1.47-2.9.62-.88,1.35-1.63,2.18-2.24.83-.61,1.72-1.03,2.67-1.26.97-.23,1.87-.25,2.73-.05.85.2,1.59.58,2.22,1.15.63.57,1.13,1.28,1.5,2.15.37.87.55,1.85.55,2.97s-.18,2.12-.53,3.15c-.36,1.03-.85,1.99-1.48,2.87-.63.88-1.36,1.62-2.18,2.23s-1.71,1.03-2.65,1.25ZM186.83,364.76c.54-.13,1.04-.37,1.51-.72.47-.35.88-.77,1.24-1.26s.63-1.03.82-1.63c.2-.6.29-1.22.29-1.86s-.1-1.17-.3-1.68c-.2-.5-.48-.92-.84-1.25-.35-.33-.76-.56-1.23-.68-.46-.12-.96-.12-1.5,0-.52.13-1.02.36-1.48.71s-.87.77-1.23,1.28c-.35.5-.64,1.06-.84,1.66s-.31,1.22-.31,1.85.1,1.17.31,1.67c.21.5.49.91.84,1.24.36.33.76.55,1.22.67.46.12.95.12,1.49,0Z"/><path d="M196.44,365.56c-.47.11-.81.12-1.03,0-.21-.11-.35-.29-.4-.53-.05-.24-.08-.51-.08-.81v-12.08c0-.28.03-.54.08-.79.05-.25.19-.48.41-.68.22-.21.58-.37,1.08-.49.48-.12.82-.13,1.01-.06.19.08.35.21.5.4l5.87,7.4v-7.94c0-.28.03-.54.09-.79.06-.25.2-.48.41-.68.21-.21.56-.37,1.05-.48.5-.12.85-.12,1.06-.01.21.11.33.29.38.54.05.25.07.51.07.79v12.01c0,.28-.03.55-.08.82s-.19.51-.4.72c-.21.21-.57.38-1.07.5-.38.09-.67.12-.87.1-.21-.02-.39-.12-.53-.29l-5.99-7.44v7.74c0,.28-.03.55-.08.82-.05.27-.19.51-.4.72-.21.21-.57.38-1.07.5Z"/><path d="M210.4,362.18c-.48.12-.83.12-1.05.02-.21-.1-.35-.28-.39-.53-.05-.25-.07-.52-.07-.8v-12.03c0-.65.11-1.11.34-1.4.23-.29.64-.5,1.23-.65l7.6-1.84c.27-.07.52-.1.74-.1.23,0,.42.09.56.29.15.2.22.58.22,1.13s-.07.93-.22,1.2c-.15.27-.34.46-.57.57-.24.11-.49.19-.75.26l-6.09,1.47v2.84l4.14-1c.27-.07.51-.1.71-.11s.37.08.49.25c.12.18.18.51.18.99,0,.46-.06.8-.18,1.03-.12.24-.29.4-.5.5-.21.1-.46.18-.74.25l-4.1.99v2.95l6.11-1.48c.27-.07.52-.09.74-.09.23,0,.42.1.56.29.15.19.22.57.22,1.12s-.07.93-.22,1.2c-.15.27-.34.46-.57.57-.24.11-.49.19-.75.26l-7.64,1.85Z"/><path d="M231.9,341.85c.48.25.75.54.79.85.05.32-.07.75-.35,1.28l-4.24,8v4.29c0,.28-.03.55-.08.82-.05.27-.18.51-.39.72-.21.21-.57.38-1.08.5-.5.12-.85.12-1.07.02-.21-.11-.35-.29-.39-.54-.05-.25-.07-.53-.07-.82v-4.25l-4.26-5.94c-.3-.4-.41-.77-.34-1.13.07-.35.33-.76.8-1.23.35-.33.64-.55.88-.65.24-.1.46-.1.66,0,.2.1.4.29.58.58l3.16,4.74,3.24-6.28c.21-.4.42-.7.61-.89.2-.19.41-.29.65-.3s.54.06.88.23Z"/><line class="cls-4" x1="172.27" y1="383.31" x2="160.66" y2="379.51"/><polyline class="cls-8" points="238.53 339.81 255.11 335.8 245.47 351.88 255.11 363.3 226.92 370.12 226.92 363.51"/><line class="cls-4" x1="238.53" y1="360.71" x2="226.92" y2="370.12"/></g><g id="Ours"><path class="cls-12" d="M107.39,248.48l-9.07,3.02s-14.36.57-17.1,0-5.29-1.39-5.29-1.39l2.65-2.11-9.64-2.55-12.09-6.24-7.65-7.28-5.57-6.24,4.16.66-9.35-11.43-4.09-6.14-.73-6.33v-6.24l.73-5.01,3.43,4.54v-11.34l1.13-10.3,1.13-10.49-4.63-11.62h5.67l6.9,1.8,7.75,5.48,7.46,7.56-1.42-6.05,5.01,5.86,4.25,7.37,2.83,9.17.76,3.31,2.27-4.72,1.7,5.67,2.55,22.96,3.12,6.71,6.9,7.94,8.03,4.72-2.27-12.47-.38-14.83,2.08-11.81-4.06,3.97,2.46-13.42,5.39-13.89-4.25,1.61,9.26-17.86v-18.71l-3.97,4.12,1.98-11.97-3.9,2.41,2.79-11.6,2.69-16.06-1.84-3.87-2.79-5.2s-1.89-12,6.52-14.36c8.41-2.36,10.83,1.42,10.83,1.42l1.83-2.65,10.49-5.95,12.94-3.69-3.31-2.83,4.63-1.23,9.26.47-3.61-4.25,9,.57,8.13,3.02-1.13-4.25,5.48,1.98,5.39,3.59,12.85,4.44,10.29,5.48,5.11-3.02,4.45-.47,4.46,1.8,2.59,3.76.57,5.49-1.2,5.88-.96,1.31,3.7,6.98,1.44,5.6,8.55,13.85-2.91-.96.04,9.28-3.19-.92s-1.77,8.57-7.83,13.64c-6.06,5.07-11.2,9.39-11.2,9.39l1.13,5.98,6.13-1.28,1.59,1.22-4.61,4.99,5.71-1.81,2.94.4-.15,1.81-2.76,2.5,4.07-.99,1.25.9-1.39,2.73-2.11,1.97,3.92,5.08,8.01,12.53,3.51,13.69-2.52-1.7.43,8.08-2.41,5.1-4.68,4.11-1.9.71-.64,7.8,8.63,3.08,8.29,3.65,6.94,7.94,1.77,2.41-2.76.28,3.12,9.57-.85,6.56-4.54,10.31-6.87,11.91,6.45,7.02,1.29,4.65,1.74,5.02-.58,6.24-1.07,1.91-2.38-4.25-.26,4.09-1.57,4.02-4.19-6.45-.63,5.22-1.1,1.23-2.55-5.85-3.3-4.29-5.03-4.11-11.62-8.86-.46-7.55,3.26-8.61-.39-4.61-10.42-.99-13.54,5.03-8.04.53-1.13,10.1-4.15,9.67,5.24,5.67,2.52,3.24.55,2.39,2.53,3.23.23,6.13-1.08,5.39-1.44-.43-1.47-3.88-1.87-2.71.61,6.13-1.56,3.86-2.34-1.92-2.55-4.57-1.56-.58.37,5.19-.94.8-3.47-4.27-9.35-5.15-13.96-12.21.11-14.35-4-3.61-17.5-5.63-14.92-12.69-1.9-3.79Z"/><path class="cls-14" d="M214.9,210.11c.36,2.14.55,4.34.55,6.6,0,19.51-14.21,35.33-31.75,35.33h-4.16l-6.9-11.72.94-1.7-9.11-7.09-6.57-2.22-4.11-.7c-1.01-3.15-1.64-6.51-1.8-10-.03-.63,2.37-.23,2.37-.87l11.66-1.8,14.65-5.83,8.39-6.5,6.35,4.29,9.64,2.84,9.84-.63Z"/><path class="cls-14" d="M166.88,165.41s4.06-5.18,12.14-5.74,14.46,4.27,14.46,4.27l-11.34,11.89-15.26-10.42Z"/><path class="cls-10" d="M117.37,257.41c3.89,3.91,6.9,5.2,6.9,5.2l-6.9-5.2Z"/><path class="cls-14" d="M208.31,77.09l-8.08-6.38-20.55-7.8-3.87-3.4-8.13-3.26,1.32,4.77-8.31-2.36-9.17-1.37,3.31,4.54-5.57-.61-7.98.99,3.5,3.12-9.02,2.13-14.31,7.89-1.23,2.03,3.3,4.63s-1.98,3.59-5.9,7.94c-3.92,4.35-11.25,6.8-11.25,6.8l-.32,11.48-5.39,19.28,4.76-2.99-2.4,11.97,4.38-4.12v17.77l-9.26,18.79,4.25-1.61-6.46,17.07-1.38,10.24,3.56-3.44-2.17,10.77.47,16.16,3.03,14.81-1.8-3.66-7.87-4.96-6.73-8.72-3.19-11.48-1.06-15.8-2.2-5.95-2.48,4.11-2.2-11.27-4.61-8.22-5.03-5.17.14,4.68-7.72-7.44-6.02-4.89-9.14-2.13h-4.12s5.4.92,11.56,10.2c6.17,9.28,6.73,13.32,7.72,18.85.99,5.53.57,10.84.57,10.84l-2.91-5.46s-.21,5.88.99,11.76c1.2,5.88,5.74,19.7,12.54,27.43,6.8,7.72,18.85,13.68,18.85,13.68l-6.24-7.23s5.81,5.39,11.98,7.23c4.32,1.29,9.11,1.99,11.6,2.29l4.53,7.68,10.77,8.12c-2.35-2.37-5.03-5.7-7.56-10.3-6.71-12.19-7.65-23.43-7.18-35.15.47-11.72,6.33-24,6.33-24l-5.17,6.71,11.88-35.06-5.39,5.79s7.56-15.33,7.84-18.07c.28-2.74-3.4-5.39-4.06-11.53-.66-6.14,1.13-13.53,1.13-13.53l-3.87,3.71,5.2-11.81-5.67,3.5,25.89-30.02,24.09-.41,10.3,13.18,18.33,8.54,17.83-2.95,5.44-24.16-4.42-4.77Z"/><path d="M212.57,170.58l-1.12-14.18-7.58-2.98s-3.72.79-6.18,3.04c-1.65,1.51-7.16,10.7-15.9,17.59-2.95-2.04-15-10.38-16.18-11.17-1.35-.9-5.44-3.63-9.3-2.75-3.86.89,3.17,1.61,3.17,1.61,0,0,2.62,1.2,4.54,2.55,1.7,1.19,12.88,9.64,15.37,11.53-3.68,2.53-7.86,4.56-12.5,5.47-5.47,1.07-9.81,1-13.24.37-.52-.4-1.06-.86-1.47-1.31-1.13-1.24-2.72-3.1-2.98-4.64-.28-1.74.3-5.5.3-5.5l-2-1.52s-.92,5.85,0,8.26c.5,1.32,1.85,2.81,2.97,3.89-5.24-1.76-7.7-4.79-8.85-5.57-1.98-1.35-6.45-6.66-6.45-6.66,0,0,6.18,17.42,27.43,16.16,24.38-1.45,36.99-27.43,36.99-27.43l3.76-1.49,6.94,2.27-.57,13.04s.57,3.54-2.91,8.5c-3.47,4.96-15.8,22.54-27.85,29.41-12.05,6.87-28.42,9.99-38.13,6.38-9.71-3.61-11.83-7.54-11.83-7.54l2.14,4.65s-4.12-2.43-7.31-5.48c-3.19-3.05-7.44-7.98-7.44-7.98,0,0,5.86,21.73,33.17,21.35,27.31-.38,40.54-14.55,51.59-28.16,11.06-13.61,11.06-16.82,11.17-18.07.12-1.25.25-3.64.25-3.64Z"/><path d="M183.71,140.86s2.3-1.1,3.05-1.49,2.66-1.7,2.66-1.7l-.92,1.31s3.44-.46,6.56-2.77,6.05-5.17,6.05-5.17c0,0-2.08,5.1-6.31,8.24-4.23,3.14-5.79,2.61-5.79,2.61,0,0,1.06-.89,2.14-1.79s1.01-.92,1.01-.92c0,0-1.34.65-3.86,1.22s-4.58.46-4.58.46Z"/><path d="M181.1,264.13s10.49.57,18.21-3.61,11.69-9.14,13.82-12.69,3.81-10.28,3.81-10.28c0,0-3.11,6.45-5.3,9.28s-7.8,8.57-14.17,10.98c-6.38,2.41-16.8,2.48-16.8,2.48l.43,3.83Z"/><path d="M188.5,204.41s5.72,5.01,14.27,6.85c8.55,1.84,20.17.43,25.04-3.78,4.87-4.2,3.78-13.98,3.78-13.98l2.27,2.55s-.43-9.87-2.69-15.35c-2.27-5.48-10.96-17.57-10.96-17.57l-2.55-3.12-1.37,2.08-.28.66s2.74,3.17,4.82,6.28,6,8.31,7.18,11.48c1.18,3.17,1.98,5.53,2.27,7.23s.57,3.21.57,3.21l-2.46-2.5s.99,3.21.85,6.8-.9,8.08-2.31,9.54c-1.42,1.46-2.36,2.13-2.36,2.13,0,0,.9-1.13,1.28-2.36.38-1.23.47-3.5.47-3.5,0,0-.94,3.45-3.17,4.82-2.22,1.37-5.48,2.79-9.64,3.07s-7.65.18-11.95-1.04c-4.3-1.23-6.9-2.17-8.79-3.68-1.89-1.51-2.36-2.46-2.36-2.46l-1.89,2.65Z"/><path d="M106.55,88.85s-.8-3.02.85-5.67c1.65-2.65,4.2-3.12,6.9-2.5s4.25,1.42,5.2,2.41-1.61,4.54-1.61,4.54c0,0-.14-2.74-2.27-3.21s-3.4-.85-5.24-.05-2.65,1.46-3.83,4.49Z"/><path d="M203.28,72.23s2.98-3.37,7.87-2.98,6.56,4.43,7.16,8.65c.43,3.02-2.23,9.11-2.23,9.11l.96,1.77s3.79-6.38,3.05-11.34c-.74-4.96-2.98-9.78-8.86-9.96s-9.28,3.69-9.28,3.69l1.35,1.06Z"/><path d="M219.15,229.31s1.91-5.46,2.69-11.62c.78-6.17,1.2-9.78,1.2-9.78l-2.76.57s.07,5.03-.28,8.72-.85,12.12-.85,12.12Z"/><path d="M221.09,218.6s8.04,1.14,14.28,5.88,9.71,8.93,9.71,8.93l-3.97-.35s2.57,2.93,4.06,8.03c1.46,4.98.39,11.48-2.93,16.96-3.31,5.47-9.13,14.91-9.13,14.91,0,0,3.95,3.57,5.82,5.91s2.31,3.98,2.36,4.44,2.28,1.43,2.28,1.43c0,0-.91-4.67-3.01-7.12-2.1-2.46-4.48-5.08-4.48-5.08,0,0,5.28-8.74,7.13-12.14s5.74-10.13,4.75-15.85c-.99-5.72-2.81-9.24-2.81-9.24l3.69-.05s-7.7-9.97-12.19-12.85-10.96-5.24-13.28-5.72-2.55-.76-2.55-.76l.27,2.67Z"/><path d="M200.84,258.15l7.56.65s2.27,0,2.93.54.28,3.54-.76,5.74c-1.04,2.2-2.69,7.42-2.43,11.2.26,3.78,5.41,7.42,8.72,9.87,3.31,2.46,9.84,6.11,9.43,4.68-.49-1.7.04-1.09.04-1.09l-.53-.61s-4.27-2.38-7.82-5.22c-3.54-2.84-6.94-4.58-7.16-8.94s2.97-10.78,3.3-13.78c.37-3.4-.28-4.89-4.07-5.07-6.7-.31-6.13-.46-6.13-.46l-3.07,2.49Z"/><path d="M189.03,150.13s10.15-1.83,21.77-12.13c11.62-10.3,11.15-12.99,12-14.98.85-1.98.57-4.06.57-4.06l3.5,1.25-.48-9.11,2.2.64-9.66-13.78,1.31-3.53,12.58,19.98-3.99-1.28.32,10.18-3.95-1.59s-.19,2.34-2,6.04-9.41,10.29-11.61,12.14c-2.2,1.84-7.03,5.38-10.49,7.3-4.63,2.57-12.07,2.92-12.07,2.92Z"/><polygon points="204.9 144.08 206.32 152.3 207.92 150.6 206.67 142.69 204.9 144.08"/><path class="cls-7" d="M239.6,292.49c-1.48-2.36-2.51-2.94-2.04-6s4.56-3.38,5.53-.94c.74,1.88,1.25,3.45,1.22,6.74-.03,2.71-.9,5.27-1.72,5.31s-1.22-2.29-2.98-5.12Z"/><path class="cls-7" d="M234.61,295.27c-1.78-2.85-3.02-3.54-2.46-7.23s5.5-4.07,6.66-1.13c.9,2.27,1.5,4.16,1.46,8.13-.03,3.27-1.09,6.35-2.08,6.4s-1.46-2.76-3.59-6.17Z"/><path class="cls-7" d="M229.46,295.37c-1.78-2.85-3.64-2.41-3.07-6.09s5.43-3.53,6.59-.59c.9,2.27,1.32,3.59,1.28,7.56-.03,3.27-.61,5.15-1.61,5.2s-1.06-2.67-3.19-6.07Z"/><path d="M163.64,300.93s-13.39-9.99-15.45-14.03c-2.06-4.04.21-10.13-1.56-14.17s-7.23-9.35-7.23-9.35c0,0,1.91,3.54,2.83,5.03.92,1.49-15.8-5.39-20.76-9-4.96-3.61-15.09-10.28-20.1-26.53-9.25-30-.24-46.82-.24-46.82l-4.82,5.91s.71-5.7,2.73-11.73c2.02-6.02,6.38-16.58,6.38-16.58l-4.07,3.22s6.63-13.71,7.33-15.87c.71-2.16-.18-20.98-.18-20.98l-3.93,3.9,2.41-11.48-3.9,3.15s3.65-11.7,4.74-16.03c1.09-4.32.05-12.47-.57-13.46-.61-.99-3.68-2.95-4.06-7.25-.24-2.73.49-10.87,7.72-12.03s12.59,5.17,12.59,5.17l-2.2-4.84s2.48-4.41,11.48-7.45,15.84-3.93,15.84-3.93l-4.71-3.47s4-.89,10.03.32c6.02,1.2,8.04,2.16,8.04,2.16l-8.22-6.52s3.63-.25,9.87,1.63,7.17,3.4,7.17,3.4l-1.67-5.53s2.37.64,4.5,1.91c2.13,1.28,3.83,3.08,5.78,3.9,1.95.81,9,3.22,13.32,4.68s10.52,5.14,12.05,6.91,2.62,3.19,2.62,3.19l4.12,3.8.57-2.41s-4.32-4.42-6.45-6.4-7.23-5.48-10.16-6.45c-2.93-.97-8.01-2.5-11.39-3.76-3.38-1.25-3-.8-4.94-2.13-1.94-1.32-3.17-2.36-5.17-3.71-2.01-1.35-7.39-2.57-7.39-2.57l.87,4.23s-9.48-3.14-13.27-3.19c-3.79-.05-4.85.17-4.85.17l2.81,4.02s-5.29-.19-8.01.24c-2.72.43-4.77,1.63-4.77,1.63l3.31,2.57s-8.98,2.03-13.09,3.71c-4.11,1.68-10.8,7.35-10.8,7.35,0,0-3.02-1.42-7.32-1.04-4.3.38-10.85,2.53-11.28,12.2-.43,9.67,6.27,10.91,6.27,10.91v10.03l-2.76,2.93-4.35,18.76,4.77-3.12s-1.32,2.08-1.84,5.76c-.52,3.69-.28,7.32-.28,7.32l4.11-4.68s.14,11.62-.24,14.31c-.38,2.69-3.31,10.39-5.57,13.94-2.27,3.54-4.44,8.22-4.44,8.22l3.87-1.61s-3.12,7.04-4.72,13.04c-1.61,6-1.89,14.74-1.89,14.74l3.31-3.69s-1.84,8.36-1.61,18.57c.11,4.65.49,9.87,1.48,15.15-1.6-1.04-5.56-3.87-9.93-8.89-5.67-6.52-5.2-15.83-6.14-25.51-.79-8.13-3.45-13.84-3.45-13.84l-1.96,5.46s-2.06-10.03-5.07-15.24c-3.01-5.21-9.78-10.84-9.78-10.84l1.74,6.09s-6.48-7.94-13.75-11.37c-7.26-3.44-13.93-1.49-13.93-1.49,0,0,2.87,6.24,4.36,10.13,1.49,3.9-.92,14.28-1.38,19.42-.46,5.14-.12,11.87-.12,11.87,0,0-1.16-.94-1.63-2.43-.47-1.49-.47-3.21-.47-3.21,0,0-2.83,6.05-1.98,16.35.85,10.3,12.19,20.98,12.19,20.98l-4.54-.94s7.18,10.11,15.59,16.25c8.41,6.14,19.65,8.79,19.65,8.79l-5.48.76s8.32,2.93,18.14,3.4c7.9.38,15.56-1.5,18.25-2.25,4.85,6.67,8.97,9.95,15.95,14.22,8.57,5.24,15.8,6.09,19.91,7.58,4.11,1.49.85,11.27,2.48,15.87,1.63,4.61,16.3,14.17,19.77,16.09l-.08-1.4-.47-1.71-.56-.4ZM183.29,293.46l1.1-.23s.43-1.84-.71-3.3c-1.13-1.45-7.09-8.11-7.09-8.11,0,0,5.2-9.11,5.13-21.3-.07-12.19-7.37-20.06-7.37-20.06l2.98.92s-7.87-11.34-18.35-13.04c-10.49-1.7-21.61.35-21.61.35,0,0,12.76-1.2,21.26,1.63,8.5,2.83,13.46,8.65,13.46,8.65l-4.04-.71s7.94,5.03,10.35,15.38c2.41,10.35-.92,20.06-2.55,23.81-1.63,3.76-2.48,5.1-2.48,5.1,0,0,5.53,5.17,6.94,7.02s1.09,3.34,1.09,3.34l1.9.54ZM103.18,245.54c.68,1.07,1.33,2.04,1.96,2.98-.49.18-1.09.4-1.83.64-2.6.85-6.9,1.42-14.17,1.37-7.28-.05-10.82-1.37-10.82-1.37l4.44-1.7s-3.59-.19-10.91-2.5c-7.32-2.31-11.81-4.96-16.72-9.02s-8.93-8.74-8.93-8.74l5.34,1.42s-10.58-11.24-14.65-18.33c-4.05-7.06-2.09-16.56-2.08-16.62,0,.02.07.2.9,1.46.99,1.51,3.78,3.64,3.78,3.64,0,0-.14-.8-.71-5.86-.57-5.06-.14-12.33,1.09-18.19,1.23-5.86,1.18-11.24.28-13.94-.9-2.69-3.5-8.03-3.5-8.03,0,0,.09-.43,3.78-.05,3.69.38,8.41,2.36,12.94,6.05,4.54,3.68,11.06,10.91,11.06,10.91l-1.56-6.33s1.75,1.89,3.83,4.68c2.08,2.79,3.54,7.04,5.1,11.91,1.56,4.87,2.46,10.35,2.46,10.35l2.36-6.24s1.75,4.16,1.94,12.94.9,16.02,6.85,23.49c4.61,5.79,9.52,8.58,11.51,9.54,1.25,5.39,3.21,10.75,6.27,15.55Z"/><path class="cls-7" d="M180.02,294.03c1.32-1.16,2.92-.89,3.8-.28,1.72,1.18,2.76,4.96,2.29,8.79s-.97,5.74-1.87,5.76-1.21-3.11-2.2-4.63c-1.04-1.61-2.7-2.79-3.28-5.01-.45-1.73.26-3.76,1.25-4.63Z"/><path class="cls-7" d="M171.21,301.38c.23,1.44,1.82,2.39,2.78,3.26s2.5,3.14,2.99,3.99,1.17,2.66,2.43,2.64,1.79-3.69,1.47-6.94c-.32-3.26-1.35-6.86-3.49-8.47s-4.66-.02-5.39,1.84c-.73,1.86-.97,2.55-.8,3.69Z"/><path class="cls-7" d="M168.08,297.87c-2.25.51-3.33,2.15-3.73,3.43s-.28,2.27,2.36,3.54,4.3,3.52,4.77,4.3,1.09,1.25,1.56.97.33-3.61,0-5.48c-.33-1.87-.62-5.36-2.43-6.4-1.08-.62-2.26-.41-2.53-.35Z"/><path d="M211.5,107.26s2.39,3.78,2.91,6.71c.52,2.93.24,4.91-.43,6.42-.66,1.51-3.06,4.09-3.06,4.09,0,0,2.64-1.21,4.15-4.09s.9-7.18-.33-10.2c-1.23-3.02-1.46-4.68-1.46-4.68l-1.77,1.75Z"/><path d="M154.18,120.23s4.07,2.02,7.57,3.71c3.69,1.78,7.63,5.4,18.3,4.76,14.89-.9,21.79-7.41,21.79-7.41l.9-3.17v3.54s1.13.35,2.98,1.46,2.69,2.95,2.69,2.95c0,0-2.27-2.29-4.13-2.62s-2.36-.24-2.36-.24c0,0-2.55,2.22-7.96,4.46s-20.94,3.89-27.07.73c-6.43-3.31-14.76-7.31-14.76-7.31l.55-.52,1.51-.37Z"/><path d="M158.37,119.24s-5.48-.57-7.56,1.09-4.25,6.14-4.25,6.14c0,0,4.54-5.24,7.18-5.81s4.63-1.42,4.63-1.42Z"/><path class="cls-7" d="M159.05,161.05c-.62-3.02-4.12-5.4-8.47-6.73-4.59-1.41-10.67-1.21-10.75.87-.04,1.16,1.29,1.77,3.98,2.94s5.45,3.7,6.37,5.06c3.22,4.74,9.49.88,8.88-2.13Z"/><path class="cls-7" d="M156.45,165.49c-.57-2.87-3.99-5.13-8.26-6.4-4.51-1.33-10.52-1.14-10.63.84-.06,1.1,1.24,1.69,3.88,2.79,2.64,1.11,5.33,3.52,6.21,4.81,3.11,4.51,9.36.83,8.8-2.05Z"/><path class="cls-7" d="M154.36,171.62c-.31-2.77-3.24-5.2-7.02-6.76-3.98-1.65-9.42-1.98-9.66-.11-.13,1.04,1.01,1.7,3.31,2.98,2.31,1.27,4.56,3.79,5.28,5.08,2.49,4.54,8.4,1.58,8.09-1.19Z"/><path class="cls-7" d="M197.07,159.99c-.22-3.07,2.52-6.3,6.35-8.76,4.04-2.59,9.96-4.03,10.59-2.05.35,1.11-.76,2.05-3.04,3.9-2.28,1.85-4.25,5.03-4.77,6.58-1.82,5.43-8.91,3.4-9.12.33Z"/><path class="cls-7" d="M201.69,163.88c-.23-2.92,2.46-6.02,6.24-8.38,3.99-2.5,9.83-3.92,10.47-2.05.35,1.05-.74,1.96-2.99,3.74-2.25,1.78-4.18,4.82-4.69,6.3-1.78,5.18-8.79,3.31-9.02.39Z"/><path class="cls-7" d="M206.57,168.16c-.45-2.75,1.73-5.88,4.94-8.4,3.39-2.66,8.55-4.44,9.28-2.7.41.97-.51,1.91-2.39,3.76s-3.38,4.87-3.72,6.31c-1.18,5.04-7.66,3.78-8.11,1.03Z"/><path class="cls-2" d="M66.22,92.26s5.03,6.66,8.86,9.21c3.83,2.55,8.86,4.39,8.86,4.39,0,0-4.75,3.05-8.43,7.3s-5.24,9.5-5.24,9.5c0,0,8.93,2.91,18.57-.85s11.06-10.42,11.06-10.42c0,0,5.17-.92,12.69-.92s17.65-.43,23.88,1.63,16.09,5.39,29.34-2.62c13.25-8.01,12.69-11.06,19.91-11.34s9.71,1.35,12.12,2.69,8.34,8.01,13.77,6.87,10.14-10.91,10.14-10.91c0,0-1.66-5.82-4.5-10s-5.13-7.06-5.13-7.06c0,0-6.99-2.24-11.74,0-4.75,2.24-10.13,6.85-16.37,7.84s-13.96.43-23.67-3.83c-9.71-4.25-24.73-.35-31.18,3.61s-16.03,8.36-22.79,9.71c-6.76,1.35-8.82,1.2-8.82,1.2,0,0-3.47-8.59-13.39-9.43-9.92-.84-17.93,3.41-17.93,3.41Z"/><path class="cls-3" d="M164.27,99.42c1.12-3.22.14-4.85-1.24-5.85s-7.12-5.81-11.91-5.92-10.42,3.4-11.34,6.09.35,6.7,3.47,9.89,5.74,3.33,8.47,3.33,10.42-1.42,12.54-7.55Z"/><path class="cls-12" d="M139.49,96.15s5.27,1.49,10.86,1.74,14.4-.85,14.4-.85l-.62-2.34-1.73-1.59-6.38-4.09-4.32-1.36-4.61.64-3.98,1.9-2.73,2.44-.91,1.9v1.62Z"/><path class="cls-1" d="M139.49,96.15s5.27,1.49,10.86,1.74,14.4-.85,14.4-.85"/><path d="M153.29,102.25c-1.85,0-3.35-1.5-3.35-3.35,0-.34.05-.67.15-.99l-2.58-.26c-.18.49-.27,1.03-.27,1.58,0,2.6,2.1,4.7,4.7,4.7s4.7-2.1,4.7-4.7c0-.06-.01-.11-.02-.17-.09,1.77-1.54,3.18-3.33,3.18Z"/><path class="cls-1" d="M164.27,99.42c1.12-3.22.14-4.85-1.24-5.85s-7.12-5.81-11.91-5.92-10.42,3.4-11.34,6.09.35,6.7,3.47,9.89,5.74,3.33,8.47,3.33,10.42-1.42,12.54-7.55Z"/><path class="cls-3" d="M204.13,84.92c-2.94-.12-5.68,1.4-7.28,3.86-1.59,2.45-1.8,5.43-1.32,6.7s2.53,1.56,4.05,2.83c1.52,1.28,4.36,2.83,8.26,1.74s5.31-5.3,5.63-7.7c.32-2.4-2.48-5.13-4.36-6.16s-3.28-1.2-4.98-1.28Z"/><polygon class="cls-12" points="195.31 93.67 196.02 89.96 198.13 87 201.94 85.07 204.85 84.92 208.55 85.8 211.37 87.93 212.73 89.68 207.8 92.23 202.65 93.72 196.75 93.99 195.31 93.67"/><path class="cls-1" d="M195.54,93.81s6.24.84,10.54-1.02c4.3-1.86,6.66-3.37,6.66-3.37"/><path d="M205.33,94.88c-.12,1.09-.77,1.94-1.59,1.97-.94.04-2.14-.7-1.58-2.72.06-.23-.24.08-.21-.14.07-.41-.37-.29-.79-.29-.39,0-.76-.17-.9.29-.15.51-.18,1.09-.07,1.68.32,1.71,1.72,2.88,3.14,2.61,1.37-.26,2.24-1.77,2-3.41Z"/><path class="cls-1" d="M204.13,84.92c-2.94-.12-5.68,1.4-7.28,3.86-1.59,2.45-1.8,5.43-1.32,6.7s2.53,1.56,4.05,2.83c1.52,1.28,4.36,2.83,8.26,1.74s5.31-5.3,5.63-7.7c.32-2.4-2.48-5.13-4.36-6.16s-3.28-1.2-4.98-1.28Z"/><path class="cls-2" d="M186.68,108.9c-.15,2.04,1.19,5.36,6.27,8.27,3.81,2.19,7.55,1.98,9.43,1.77s5.31-2.62,7.72-6.08c2.41-3.46,1.52-6.75-1.31-7.95s-8.19-2.62-13.04-1.52-8.93,3.53-9.07,5.51Z"/><path class="cls-11" d="M203.89,105.09c-2.76-.39-5.95-.64-5.73.81.22,1.45,2.95.61,5.1.99s4.55,1.11,5.06.33c.48-.74-1.12-1.66-4.43-2.13Z"/><path d="M208.89,181.9s4.28-.48,6.22.46,3.02,1.61,3.02,1.61c0,0-1.97-3.38-4.62-4.39-2.66-1-3.93-.76-3.93-.76l-.69,3.08Z"/></g></g></svg>